<svg width="31" height="30" viewBox="0 0 31 30" fill="none" xmlns="http://www.w3.org/2000/svg">
<path d="M15.045 5.79936C17.1943 5.7663 19.2729 6.56685 20.8445 8.03301L25.0777 3.89449C22.3618 1.35015 18.7666 -0.0450217 15.045 0.00110853C12.2643 0.000466143 9.53829 0.773204 7.17174 2.23291C4.80519 3.69261 2.89145 5.78172 1.64453 8.26661L6.49501 12.0317C7.08811 10.2287 8.23232 8.6573 9.76631 7.53914C11.3003 6.42099 13.1467 5.81245 15.045 5.79936Z" fill="#E43E2B"/>
<path d="M29.4439 15.3313C29.4616 14.3004 29.3551 13.2711 29.1266 12.2656H15.0439V17.8317H23.3113C23.1544 18.8076 22.8018 19.7417 22.2746 20.5778C21.7474 21.4139 21.0565 22.1347 20.2435 22.697L24.9771 26.3626C26.4524 24.9385 27.6125 23.221 28.3827 21.3209C29.1528 19.4208 29.5158 17.3804 29.4483 15.3313H29.4439Z" fill="#3B7DED"/>
<path d="M6.51175 17.9635C6.18379 17.0088 6.01472 16.0068 6.01127 14.9973C6.01725 13.9895 6.18026 12.9888 6.49444 12.0312L1.64396 8.26611C0.59193 10.3543 0.0439453 12.6599 0.0439453 14.9981C0.0439453 17.3362 0.59193 19.6418 1.64396 21.73L6.51175 17.9635Z" fill="#F0B501"/>
<path d="M15.0443 29.9944C18.6981 30.0977 22.2526 28.7979 24.9775 26.362L20.2438 22.6965C18.709 23.7252 16.8914 24.2495 15.0443 24.1962C13.1476 24.1849 11.3025 23.5768 9.77096 22.4581C8.23937 21.3394 7.099 19.767 6.51161 17.9639L1.66113 21.7304C2.90469 24.2141 4.8153 26.3028 7.17899 27.7623C9.54268 29.2219 12.2661 29.9948 15.0443 29.9944Z" fill="#2BA24C"/>
</svg>
