<svg width="70" height="90" viewBox="0 0 70 90" fill="none" xmlns="http://www.w3.org/2000/svg">
<path d="M20.5075 90C14.4488 90 9.54217 88.1653 5.7875 84.496C2.03283 80.8267 0.1555 76.1333 0.1555 70.416C0.1555 67.6853 0.710167 65.0827 1.8195 62.608C2.92883 60.048 4.7635 57.6587 7.3235 55.44L45.4675 21.392C45.6382 21.2213 45.7662 21.0507 45.8515 20.88C46.0222 20.624 46.1075 20.368 46.1075 20.112C46.1075 19.7707 45.9795 19.472 45.7235 19.216C45.5528 18.8747 45.2968 18.6187 44.9555 18.448C44.6995 18.2773 44.4008 18.192 44.0595 18.192H2.3315V0.399994H48.7955C52.8915 0.399994 56.4328 1.25333 59.4195 2.96C62.4915 4.58133 64.8808 6.88533 66.5875 9.87199C68.2942 12.7733 69.1475 16.144 69.1475 19.984C69.1475 22.7147 68.5928 25.36 67.4835 27.92C66.4595 30.3947 64.7955 32.656 62.4915 34.704L23.8355 68.88C23.7502 68.9653 23.6222 69.0933 23.4515 69.264C23.3662 69.4347 23.2808 69.6053 23.1955 69.776C23.1955 69.8613 23.1955 70.032 23.1955 70.288C23.1955 70.6293 23.2808 70.9707 23.4515 71.312C23.6222 71.568 23.8782 71.7813 24.2195 71.952C24.5608 72.1227 24.9448 72.208 25.3715 72.208H69.7875V90H20.5075Z" fill="#FF6700"/>
</svg>
