<svg width="182" height="97" viewBox="0 0 182 97" fill="none" xmlns="http://www.w3.org/2000/svg">
<path d="M24.5075 97C18.4488 97 13.5422 95.1653 9.7875 91.496C6.03283 87.8267 4.1555 83.1333 4.1555 77.416C4.1555 74.6853 4.71017 72.0827 5.8195 69.608C6.92883 67.048 8.7635 64.6587 11.3235 62.44L49.4675 28.392C49.6382 28.2213 49.7662 28.0507 49.8515 27.88C50.0222 27.624 50.1075 27.368 50.1075 27.112C50.1075 26.7707 49.9795 26.472 49.7235 26.216C49.5528 25.8747 49.2968 25.6187 48.9555 25.448C48.6995 25.2773 48.4008 25.192 48.0595 25.192H6.3315V7.39999H52.7955C56.8915 7.39999 60.4328 8.25333 63.4195 9.96C66.4915 11.5813 68.8808 13.8853 70.5875 16.872C72.2942 19.7733 73.1475 23.144 73.1475 26.984C73.1475 29.7147 72.5928 32.36 71.4835 34.92C70.4595 37.3947 68.7955 39.656 66.4915 41.704L27.8355 75.88C27.7502 75.9653 27.6222 76.0933 27.4515 76.264C27.3662 76.4347 27.2808 76.6053 27.1955 76.776C27.1955 76.8613 27.1955 77.032 27.1955 77.288C27.1955 77.6293 27.2808 77.9707 27.4515 78.312C27.6222 78.568 27.8782 78.7813 28.2195 78.952C28.5608 79.1227 28.9448 79.208 29.3715 79.208H73.7875V97H24.5075ZM85.2365 97V31.336H105.205V97H85.2365ZM95.2205 23.912C92.0632 23.912 89.3325 22.76 87.0285 20.456C84.7245 18.152 83.5725 15.4213 83.5725 12.264C83.5725 9.10666 84.7245 6.37599 87.0285 4.072C89.3325 1.68267 92.0632 0.487999 95.2205 0.487999C98.3778 0.487999 101.109 1.68267 103.413 4.072C105.717 6.37599 106.869 9.10666 106.869 12.264C106.869 15.4213 105.717 18.152 103.413 20.456C101.109 22.76 98.3778 23.912 95.2205 23.912ZM163.641 97C156.302 97 149.689 95.8907 143.801 93.672C137.913 91.368 132.921 88.168 128.825 84.072C124.729 79.976 121.571 75.24 119.353 69.864C117.134 64.4027 116.025 58.5147 116.025 52.2C116.025 45.8853 117.134 40.04 119.353 34.664C121.571 29.2027 124.729 24.424 128.825 20.328C133.006 16.232 137.998 13.0747 143.801 10.856C149.689 8.55199 156.302 7.39999 163.641 7.39999H177.465V25.32H164.153C160.142 25.32 156.473 26.0027 153.145 27.368C149.902 28.7333 147.086 30.6533 144.697 33.128C142.393 35.5173 140.601 38.3333 139.321 41.576C138.126 44.8187 137.529 48.36 137.529 52.2C137.529 56.04 138.126 59.5813 139.321 62.824C140.601 66.0667 142.393 68.9253 144.697 71.4C147.086 73.7893 149.902 75.6667 153.145 77.032C156.473 78.3973 160.142 79.08 164.153 79.08H177.465V97H163.641Z" fill="#FF6700"/>
</svg>
